<?xml version="1.0" standalone="no"?><!DOCTYPE svg PUBLIC "-//W3C//DTD SVG 1.1//EN" "http://www.w3.org/Graphics/SVG/1.1/DTD/svg11.dtd"><svg t="1679731217084" class="icon" viewBox="0 0 1033 1024" version="1.1" xmlns="http://www.w3.org/2000/svg" p-id="3247" xmlns:xlink="http://www.w3.org/1999/xlink" width="129.125" height="128"><path d="M512 512m-499.2 0a499.2 499.2 0 1 0 998.4 0 499.2 499.2 0 1 0-998.4 0Z" fill="#1989FA" fill-opacity=".3" p-id="3248"></path><path d="M13.4144 536.8832A507.4816 507.4816 0 0 1 12.8 512C12.8 236.288 236.288 12.8 512 12.8c134.464 0 256.512 53.1584 346.2656 139.6096-7.1936 13.1328-18.2528 22.8992-28.5696 31.7056-17.1392 14.656-21.12-14.6432-34.3808-62.9888s-113.792-20.736-113.792 0 90.2272 29.6064-2.5984 79.296c-27.84 14.8992-65.1136 16.2176-87.8464 27.648-12.1344 6.0928-6.528 44.1856-14.6176 59.3152-6.272 11.776-26.8288 2.4064-31.68 0-24.8192-12.288-7.8336-80.9472-27.1104-86.9632-26.3168-8.2304-50.2784 27.4304-50.2784 40.64 0 15.0656 22.464 94.72 0 151.0784-24.8832 62.4256-104.5504 120.7936-156.2624 110.2976-98.4064-19.968-122.4448-48.4608-143.7184-19.968-21.2864 28.4928 12.9664 94.976 37.5552 135.6544 24.576 40.6656 2.56 92.2624-24.5888 92.2624-36.544 0-79.7824-46.6816-102.8096-92.2624-11.4048-22.5664-32.7936-49.664-64.1536-81.2416z m466.3936 246.7456c55.8336-38.3232 121.7664-60.6976 185.28-38.3232 63.488 22.3616 85.376 158.2976 31.616 200.0256-53.76 41.728-106.112 14.1696-128.7296 0-22.6176-14.1824-155.9936 14.1696-177.984 0-21.9904-14.1824-45.824-44.0832-45.824-99.776 0-55.68 79.808-23.616 135.6416-61.9264z m-171.392-146.7136c12.288-25.4208 40.64 7.168 57.3056-39.68 16.6656-46.8736 31.616-56.6784 49.344-26.5984 17.7408 30.08 13.376 62.7968 0 82.5344-13.376 19.7248-12.7872 15.5008-48.768 15.5008-35.968 0-70.1952-6.336-57.8944-31.7568zM473.0112 435.2c13.0176 1.3824 19.52 5.824 19.52 13.3504 0 11.2768-9.7536 26.9056-9.7536 26.9056s-27.1616 15.2576-33.28 8.704c-6.0928-6.528 8.1664-22.272 8.1664-35.6096 0-8.896 5.12-13.3504 15.36-13.3504z m24.6016 206.3488c28.9536-16.0512 51.7632-18.6368 68.4032-7.744 24.96 16.3456 87.2448 28.9024 87.2448 36.4928v25.0368c-51.9296-2.9824-85.248-11.328-99.9424-25.0368-22.0416-20.5568-66.9312 9.0368-66.9312 0 0-6.016 3.7376-15.6032 11.2256-28.7488z" fill="#1989FA" p-id="3249"></path></svg>