<?xml version="1.0" standalone="no"?><!DOCTYPE svg PUBLIC "-//W3C//DTD SVG 1.1//EN" "http://www.w3.org/Graphics/SVG/1.1/DTD/svg11.dtd"><svg t="1679730861856" class="icon" viewBox="0 0 1024 1024" version="1.1" xmlns="http://www.w3.org/2000/svg" p-id="1080" xmlns:xlink="http://www.w3.org/1999/xlink" width="128" height="128"><path d="M230.4 409.6V307.2a25.6 25.6 0 0 1 25.6-25.6h512a25.6 25.6 0 0 1 25.6 25.6v102.4h51.2V307.2A76.8 76.8 0 0 0 768 230.4H256A76.8 76.8 0 0 0 179.2 307.2v102.4h51.2z" fill="#333333" p-id="1081"></path><path d="M153.6 384h716.8A76.8 76.8 0 0 1 947.2 460.8v409.6a76.8 76.8 0 0 1-76.8 76.8H153.6A76.8 76.8 0 0 1 76.8 870.4V460.8A76.8 76.8 0 0 1 153.6 384z m0 51.2a25.6 25.6 0 0 0-25.6 25.6v409.6a25.6 25.6 0 0 0 25.6 25.6h716.8a25.6 25.6 0 0 0 25.6-25.6V460.8a25.6 25.6 0 0 0-25.6-25.6H153.6z" fill="#6B57FE" p-id="1082"></path><path d="M551.5264 537.6l5.0176 6.0416-40.5504 222.4128-5.0176 4.1984H486.4l-5.0176-6.0416 40.5504-222.4128 5.0176-4.1984h24.576z m-126.8736 26.0608l7.2704 4.6592v24.576l-3.0208 4.6592-111.7184 50.944 111.7184 50.944 3.0208 4.6592v24.576l-7.2704 4.6592-155.4432-70.9632-2.9696-4.6592v-18.432l2.9696-4.6592 155.4432-70.9632z m194.4064 0l155.4432 70.9632 2.9696 4.6592v18.432l-2.9696 4.6592-155.4432 70.9632-7.2704-4.6592v-24.576l3.0208-4.6592 111.7184-50.944-111.7184-50.944-3.0208-4.6592v-24.576l7.2704-4.6592zM332.8 256V153.6a25.6 25.6 0 0 1 25.6-25.6h307.2a25.6 25.6 0 0 1 25.6 25.6v102.4h51.2V153.6A76.8 76.8 0 0 0 665.6 76.8H358.4A76.8 76.8 0 0 0 281.6 153.6v102.4h51.2z" fill="#333333" p-id="1083"></path></svg>