<?xml version="1.0" standalone="no"?><!DOCTYPE svg PUBLIC "-//W3C//DTD SVG 1.1//EN" "http://www.w3.org/Graphics/SVG/1.1/DTD/svg11.dtd"><svg t="1679730856140" class="icon" viewBox="0 0 1024 1024" version="1.1" xmlns="http://www.w3.org/2000/svg" p-id="922" xmlns:xlink="http://www.w3.org/1999/xlink" width="128" height="128"><path d="M768 76.8A76.8 76.8 0 0 1 844.8 153.6v76.8h25.6a76.8 76.8 0 0 1 76.4416 69.4272L947.2 307.2v563.2a76.8 76.8 0 0 1-76.8 76.8H256A76.8 76.8 0 0 1 179.2 870.4v-76.8H153.6A76.8 76.8 0 0 1 76.8 716.8V153.6A76.8 76.8 0 0 1 153.6 76.8h614.4zM844.8 716.8a76.8 76.8 0 0 1-76.8 76.8H230.4V870.4a25.6 25.6 0 0 0 20.992 25.1904L256 896h614.4a25.6 25.6 0 0 0 25.6-25.6V307.2a25.6 25.6 0 0 0-25.6-25.6h-25.6V716.8zM768 128H153.6a25.6 25.6 0 0 0-25.6 25.6v563.2a25.6 25.6 0 0 0 25.6 25.6h614.4a25.6 25.6 0 0 0 25.6-25.6V153.6a25.6 25.6 0 0 0-25.6-25.6z" fill="#333333" p-id="923"></path><path d="M76.8 230.4h768V716.8a76.8 76.8 0 0 1-76.8 76.8H153.6A76.8 76.8 0 0 1 76.8 716.8V230.4z m51.2 51.2V716.8a25.6 25.6 0 0 0 25.6 25.6h614.4a25.6 25.6 0 0 0 25.6-25.6V281.6h-665.6z" fill="#6B57FE" p-id="924"></path><path d="M320.9216 509.8496h-31.3344V502.784a33.4336 33.4336 0 0 0-5.0688-18.5856c-3.3792-5.2224-9.0624-7.8336-17.0496-7.8336a19.712 19.712 0 0 0-10.4448 2.4576 20.5824 20.5824 0 0 0-6.4512 6.144 26.0096 26.0096 0 0 0-3.3792 9.0624 59.1872 59.1872 0 0 0-0.9216 10.5984c0 4.3008 0.1536 7.8848 0.4608 10.752a20.4288 20.4288 0 0 0 2.304 7.68 17.1008 17.1008 0 0 0 5.376 5.8368 49.408 49.408 0 0 0 9.6768 4.9152l23.9616 9.5232c6.9632 2.6624 12.5952 5.7856 16.896 9.3696 4.3008 3.584 7.68 7.7312 10.1376 12.4416 2.2528 4.9152 3.7888 10.496 4.608 16.7424 0.8192 6.2464 1.2288 13.3632 1.2288 21.3504 0 9.216-0.9216 17.7664-2.7648 25.6512a54.016 54.016 0 0 1-8.9088 20.1216 44.2368 44.2368 0 0 1-16.896 13.5168 59.5968 59.5968 0 0 1-25.4976 4.9152 55.808 55.808 0 0 1-21.1968-3.9936 50.432 50.432 0 0 1-16.896-11.0592 53.8112 53.8112 0 0 1-11.2128-16.4352 49.92 49.92 0 0 1-4.1472-20.4288v-11.6736h31.3344v9.8304a25.6 25.6 0 0 0 5.0688 15.5136c3.3792 4.608 9.0624 6.912 17.0496 6.912a27.4944 27.4944 0 0 0 12.4416-2.304 16.5376 16.5376 0 0 0 6.912-6.6048 24.2688 24.2688 0 0 0 2.9184-10.2912c0.3072-3.9936 0.4608-8.448 0.4608-13.3632l-0.256-10.0864a84.224 84.224 0 0 0-0.3584-4.0448 24.32 24.32 0 0 0-2.4576-8.9088 17.2544 17.2544 0 0 0-5.6832-5.5296 72.8064 72.8064 0 0 0-9.3696-4.608l-22.4256-9.216c-13.5168-5.5296-22.5792-12.8512-27.1872-21.9648a75.5712 75.5712 0 0 1-6.912-34.2528c0-8.192 1.1264-15.9744 3.3792-23.3472 2.2528-7.3728 5.632-13.7216 10.1376-19.0464a46.4384 46.4384 0 0 1 16.4352-12.7488c6.656-3.1744 14.592-4.7616 23.808-4.7616 7.7824 0 14.8992 1.4336 21.3504 4.3008 6.4512 2.8672 12.032 6.656 16.7424 11.3664a47.4624 47.4624 0 0 1 14.1312 33.792v15.36zM342.8352 665.6V446.8736h46.3872c18.0224 0 31.744 4.9152 41.0112 14.7456 9.3184 9.8304 13.9776 23.7568 13.9776 41.7792v102.2976c0 20.48-4.9664 35.584-14.848 45.312-9.984 9.728-24.2688 14.592-42.9056 14.592h-43.6224z m31.3344-189.2352v159.744h14.4384c8.8064 0 15.0528-2.2016 18.7392-6.6048 3.6864-4.4032 5.5296-11.3152 5.5296-20.736V503.3984c0-8.6016-1.7408-15.2576-5.2224-19.968-3.4816-4.7104-9.8304-7.0656-19.0464-7.0656h-14.4384zM472.32 665.6V446.8736h31.3344v99.84h0.6144l45.7728-99.84h31.3344l-42.7008 87.552 50.688 131.1744h-33.1776l-35.6352-97.0752-16.896 31.6416V665.6h-31.3344z m156.7744-46.3872c6.7584 0 12.288 2.1504 17.2032 7.0656 4.608 4.608 7.0656 10.4448 7.0656 17.2032 0 6.7584-2.4576 12.288-7.0656 17.2032a25.2416 25.2416 0 0 1-17.2032 6.7584 23.3984 23.3984 0 0 1-16.896-6.7584 22.9376 22.9376 0 0 1-7.0656-17.2032 22.528 22.528 0 0 1 7.0656-17.2032 21.4016 21.4016 0 0 1 16.896-7.0656z" fill="#333333" p-id="925"></path></svg>