<?xml version="1.0" standalone="no"?><!DOCTYPE svg PUBLIC "-//W3C//DTD SVG 1.1//EN" "http://www.w3.org/Graphics/SVG/1.1/DTD/svg11.dtd"><svg t="1679730880511" class="icon" viewBox="0 0 1024 1024" version="1.1" xmlns="http://www.w3.org/2000/svg" p-id="1238" xmlns:xlink="http://www.w3.org/1999/xlink" width="128" height="128"><path d="M550.4 95.0272l303.5136 175.2064a76.8 76.8 0 0 1 38.4 66.56v350.464a76.8 76.8 0 0 1-38.4 66.5088l-303.5136 175.2064a76.8 76.8 0 0 1-76.8 0l-303.5136-175.2064a76.8 76.8 0 0 1-38.4-66.56V336.7936a76.8 76.8 0 0 1 38.4-66.5088L473.6 95.0272a76.8 76.8 0 0 1 76.8 0z m-25.6 44.3392a25.6 25.6 0 0 0-25.6 0L195.6864 314.5728a25.6 25.6 0 0 0-12.8 22.1696v350.5152a25.6 25.6 0 0 0 12.8 22.1696l303.5136 175.2064a25.6 25.6 0 0 0 25.6 0l303.5136-175.2064a25.6 25.6 0 0 0 12.8-22.1696V336.7424a25.6 25.6 0 0 0-12.8-22.1696L524.8 139.3664z" fill="#333333" p-id="1239"></path><path d="M892.3136 358.4v307.2a76.8 76.8 0 0 1-76.8 76.8H208.4864a76.8 76.8 0 0 1-76.8-76.8V358.4a76.8 76.8 0 0 1 76.8-76.8h607.0272a76.8 76.8 0 0 1 76.8 76.8z m-51.2 0a25.6 25.6 0 0 0-25.6-25.6H208.4864a25.6 25.6 0 0 0-25.6 25.6v307.2a25.6 25.6 0 0 0 25.6 25.6h607.0272a25.6 25.6 0 0 0 25.6-25.6V358.4z" fill="#6B57FE" p-id="1240"></path><path d="M485.7344 578.816l-58.6752-54.784a25.6 25.6 0 0 0-34.9184 37.376l76.7488 71.68a25.6 25.6 0 0 0 35.584-0.5632l153.6-153.6a25.6 25.6 0 1 0-36.1984-36.2496l-136.1408 136.1408z" fill="#333333" p-id="1241"></path></svg>